HIERARCHY
ROOT Hips
{
 OFFSET 0.000000 0.000000 0.000000
 CHANNELS 6 Xposition Yposition Zposition Yrotation Xrotation Zrotation
 JOINT Chest
 {
  OFFSET 0.000000 9.588913 -0.003946
  CHANNELS 3 Yrotation Xrotation Zrotation
  JOINT Chest2
  {
   OFFSET 0.000000 9.541882 0.008053
   CHANNELS 3 Yrotation Xrotation Zrotation
   JOINT Chest3
   {
    OFFSET 0.000000 9.501360 0.000000
    CHANNELS 3 Yrotation Xrotation Zrotation
    JOINT Chest4
    {
     OFFSET 0.000000 9.491660 0.000000
     CHANNELS 3 Yrotation Xrotation Zrotation
     JOINT Neck
     {
      OFFSET 0.000000 14.331917 0.000000
      CHANNELS 3 Yrotation Xrotation Zrotation
      JOINT Head
      {
       OFFSET 0.000000 8.884799 0.017034
       CHANNELS 3 Yrotation Xrotation Zrotation
       End Site
       {
        OFFSET 0.000000 16.896195 0.008993
       }
      }
     }
     JOINT RightCollar
     {
      OFFSET -2.923010 9.499495 0.000000
      CHANNELS 3 Yrotation Xrotation Zrotation
      JOINT RightShoulder
      {
       OFFSET -13.795216 0.000000 0.000000
       CHANNELS 3 Yrotation Xrotation Zrotation
       JOINT RightElbow
       {
        OFFSET -30.272209 0.000000 0.000000
        CHANNELS 3 Yrotation Xrotation Zrotation
        JOINT RightWrist
        {
         OFFSET -24.478199 0.000000 0.000000
         CHANNELS 3 Yrotation Xrotation Zrotation
         End Site
         {
          OFFSET -18.090752 0.000000 0.000000
         }
        }
       }
      }
     }
     JOINT LeftCollar
     {
      OFFSET 2.923010 9.499495 0.000000
      CHANNELS 3 Yrotation Xrotation Zrotation
      JOINT LeftShoulder
      {
       OFFSET 13.795216 0.000000 0.000000
       CHANNELS 3 Yrotation Xrotation Zrotation
       JOINT LeftElbow
       {
        OFFSET 30.272209 0.000000 0.000000
        CHANNELS 3 Yrotation Xrotation Zrotation
        JOINT LeftWrist
        {
         OFFSET 24.478199 0.000000 0.000000
         CHANNELS 3 Yrotation Xrotation Zrotation
         End Site
         {
          OFFSET 18.090752 0.000000 0.000000
         }
        }
       }
      }
     }
    }
   }
  }
 }
 JOINT RightHip
 {
  OFFSET -7.826875 0.019532 0.001973
  CHANNELS 3 Yrotation Xrotation Zrotation
  JOINT RightKnee
  {
   OFFSET 0.000000 -40.546152 -0.001885
   CHANNELS 3 Yrotation Xrotation Zrotation
   JOINT RightAnkle
   {
    OFFSET 0.000000 -39.417092 -0.003189
    CHANNELS 3 Yrotation Xrotation Zrotation
    JOINT RightToe
    {
     OFFSET 0.000000 -7.579396 17.243563
     CHANNELS 3 Yrotation Xrotation Zrotation
     End Site
     {
      OFFSET 0.000000 -1.500329 6.694466
     }
    }
   }
  }
 }
 JOINT LeftHip
 {
  OFFSET 7.826875 0.019532 0.001973
  CHANNELS 3 Yrotation Xrotation Zrotation
  JOINT LeftKnee
  {
   OFFSET 0.000000 -40.546152 -0.001885
   CHANNELS 3 Yrotation Xrotation Zrotation
   JOINT LeftAnkle
   {
    OFFSET 0.000000 -39.417092 -0.003189
    CHANNELS 3 Yrotation Xrotation Zrotation
    JOINT LeftToe
    {
     OFFSET 0.000000 -7.579396 17.243563
     CHANNELS 3 Yrotation Xrotation Zrotation
     End Site
     {
      OFFSET 0.000000 -1.500329 6.694466
     }
    }
   }
  }
 }
}
MOTION
Frames: 5
Frame Time: 0.008333
0.000000 87.345680 0.000000 0.000000 -5.767889 0.000000 0.000000 11.653876 0.000000 0.000000 -5.885988 0.000000 0.000000 -0.000000 0.000000 0.000000 -0.000000 0.000000 0.000000 12.528808 0.000000 0.000000 0.711711 0.000000 0.000000 -0.000000 0.000000 0.000000 -0.000000 0.000000 2.309063 -0.000000 0.000000 -2.309063 -0.000000 -0.000000 0.000000 -0.000000 0.000000 0.000000 0.000000 0.000000 -2.309063 0.000000 0.000000 2.309063 -0.000000 0.000000 0.000000 8.520374 0.000000 0.000000 1.905768 0.000000 -0.000000 -4.658254 0.000000 0.000000 -0.000000 0.000000 0.000000 8.520374 0.000000 0.000000 1.905768 0.000000 -0.000000 -4.658254 0.000000 0.000000 -0.000000 0.000000
-13.850554 48.533243 -25.243412 39.911193 -29.853892 -0.386737 -2.818717 12.384092 -1.005033 -1.408098 7.218053 -0.081237 -1.765266 9.022081 -0.129800 -1.408098 7.218053 -0.081237 2.286323 17.993013 -1.607285 2.787695 -6.732310 -2.223304 13.559569 -6.461867 -5.006335 29.706429 -31.637886 51.976011 57.437212 12.428679 26.560877 5.512937 -1.711333 -10.645820 4.057339 -8.235984 1.518889 -24.634577 -31.763250 -54.616698 -57.704103 -5.788005 -38.189888 4.408393 -3.222689 2.334991 14.692252 -53.798982 -37.564232 101.828733 63.039412 110.478157 -11.281019 -11.178601 2.775180 0.459396 0.119284 0.235824 29.365165 -42.972809 -50.479521 89.295655 59.115711 119.465978 -0.577132 -12.538689 -4.570463 -1.245486 0.006826 -1.114316
-13.958428 48.540114 -25.224950 39.990232 -29.849053 -0.409517 -2.860398 12.387600 -1.014230 -1.413451 7.216403 -0.078495 -1.771915 9.020027 -0.126466 -1.413451 7.216402 -0.078495 2.282320 17.982671 -1.599509 2.781490 -6.744048 -2.214011 13.577836 -6.438931 -5.020056 29.692383 -31.695067 51.956333 57.411473 12.434619 26.594423 5.511197 -1.709677 -10.666282 4.012049 -8.230370 1.501878 -24.612207 -31.803232 -54.623627 -57.691565 -5.730926 -38.136780 4.418097 -3.225473 2.259378 14.656538 -53.747043 -37.640508 101.823672 63.062577 110.477222 -11.210483 -11.195290 2.812273 0.406224 0.108209 0.205617 29.300981 -42.992892 -50.452303 88.953280 58.971293 119.135830 -0.477263 -12.417038 -4.624215 -1.158981 0.022853 -0.999745
-14.074736 48.552945 -25.215908 40.066106 -29.840358 -0.416466 -2.892955 12.387346 -1.031888 -1.419211 7.215431 -0.076398 -1.779086 9.018818 -0.123950 -1.419211 7.215431 -0.076398 2.277571 17.971747 -1.590902 2.774288 -6.756470 -2.203655 13.596550 -6.422351 -5.033269 29.671691 -31.742658 51.934985 57.390525 12.427591 26.626894 5.504384 -1.711077 -10.685106 3.965539 -8.230184 1.486245 -24.595580 -31.841494 -54.634465 -57.667376 -5.676405 -38.095045 4.423880 -3.227620 2.193942 14.646060 -53.692502 -37.731903 101.804294 63.080312 110.464993 -11.173763 -11.204348 2.845952 0.383363 0.094915 0.185878 29.260488 -42.997839 -50.440660 88.564450 58.846662 118.749332 -0.343102 -12.263611 -4.656624 -1.116143 0.034734 -0.905911
-14.190843 48.574451 -25.220744 40.144840 -29.832256 -0.408305 -2.924142 12.389179 -1.062229 -1.426074 7.215101 -0.075000 -1.787654 9.018407 -0.122335 -1.426074 7.215100 -0.075000 2.273140 17.959316 -1.581751 2.767284 -6.770552 -2.192785 13.614911 -6.414639 -5.045892 29.648641 -31.780815 51.917003 57.374619 12.412086 26.655946 5.492085 -1.711214 -10.702210 3.924003 -8.233549 1.474941 -24.582804 -31.883917 -54.651836 -57.632837 -5.620527 -38.067259 4.423419 -3.232130 2.142269 14.654684 -53.631577 -37.839519 101.773184 63.093374 110.446001 -11.172444 -11.206121 2.882578 0.374099 0.079920 0.168124 29.238549 -42.983615 -50.448120 88.138808 58.750207 118.316113 -0.192302 -12.068486 -4.670451 -1.103700 0.036565 -0.824636
